<svg width="48" height="48" viewBox="0 0 48 48" fill="none" xmlns="http://www.w3.org/2000/svg">
<path d="M5.325 34.125L6.675 34.875L15.45 18.75H20.775L23.775 12H24.3L32.55 29.25H34.8L38.325 37.05L39.675 36.45L35.7 27.75H33.45L31.65 23.925L34.875 18.75H35.475L37.725 23.25H41.475L43.5 27.3L44.85 26.625L42.45 21.75H38.7L36.45 17.25H34.05L30.825 22.35L25.2 10.5H24.75V6H33.3L32.325 3L33.3 0H24.75H23.25V6V10.5H22.8L19.8 17.25H14.625L5.325 34.125ZM24.75 1.5H31.2L30.675 3L31.2 4.5H24.75V1.5ZM46.5 24H48C48 37.2 37.2 48 24 48C10.8 48 0 37.2 0 24C0 17.625 2.475 11.55 7.05 7.05L8.1 8.1C3.825 12.375 1.5 18 1.5 24C1.5 36.375 11.625 46.5 24 46.5C36.375 46.5 46.5 36.375 46.5 24ZM10.725 37.275C14.25 40.8 18.975 42.75 24 42.75V44.25C18.6 44.25 13.5 42.15 9.675 38.325L10.725 37.275ZM24.75 18.75H23.25V17.25H24.75V18.75ZM24.75 21.75H23.25V20.25H24.75V21.75ZM24.75 24.75H23.25V23.25H24.75V24.75ZM33.075 13.5C33.45 11.775 34.95 10.5 36.75 10.5C38.1 10.5 39.375 11.25 39.975 12.375C40.35 12.15 40.8 12 41.25 12C42.225 12 43.05 12.6 43.35 13.5H45V15H42V14.25C42 13.8 41.7 13.5 41.25 13.5C40.8 13.5 40.5 13.8 40.5 14.25H39C39 12.975 38.025 12 36.75 12C35.475 12 34.5 12.975 34.5 14.25V15H31.5V13.5H33.075ZM48 13.5V15H46.5V13.5H48ZM18.75 12H13.5V10.5H18.75V12ZM12 12H10.5V10.5H12V12Z" fill="#F37F02"/>
</svg>
