<svg width="46" height="22" viewBox="0 0 46 22" fill="none" xmlns="http://www.w3.org/2000/svg">
<path d="M41.1856 5.52544L41.1884 5.52151L35.2841 1.18839L35.1585 1.1223C34.9777 1.05993 31.0962 -0.2502 27.5492 1.48678C26.1951 0.657172 24.6398 0.213915 23.0518 0.205031C21.4638 0.196147 19.9036 0.621974 18.5403 1.43638L18.4542 1.48818C14.9056 -0.252173 11.0224 1.05994 10.8416 1.12232L4.81159 5.52151L4.81447 5.52544C3.66251 6.30104 2.7082 7.33564 2.02798 8.54638C1.34777 9.75712 0.96057 11.1103 0.897392 12.4976C0.834213 13.8849 1.09682 15.2677 1.66416 16.5353C2.23151 17.8028 3.08783 18.9199 4.16453 19.797C5.24123 20.6741 6.50839 21.2868 7.86448 21.5861C9.22057 21.8854 10.6279 21.863 11.9738 21.5206C13.3196 21.1781 14.5666 20.5253 15.6148 19.6143C16.6629 18.7033 17.4832 17.5595 18.0098 16.2745L18.013 16.276L20.6816 10.7218H25.3183L27.9866 16.2756L27.9901 16.2739C28.5198 17.553 29.3411 18.6905 30.3884 19.5958C31.4358 20.5011 32.6803 21.149 34.0226 21.4879C35.3648 21.8268 36.7677 21.8473 38.1193 21.5477C39.4709 21.2482 40.7338 20.6368 41.8071 19.7625C42.8805 18.8882 43.7346 17.7751 44.3014 16.5121C44.8682 15.249 45.1319 13.871 45.0716 12.4879C45.0112 11.1048 44.6284 9.755 43.9537 8.54615C43.279 7.3373 42.3311 6.30289 41.1856 5.52544L41.1856 5.52544ZM26.5852 2.04163C26.5397 2.07239 26.4929 2.09627 26.4477 2.12823C25.3812 2.67672 24.1993 2.96284 23 2.96284C21.8008 2.96284 20.6188 2.67672 19.5524 2.12823C19.5092 2.09771 19.4645 2.075 19.4212 2.04559C20.5267 1.46802 21.7554 1.16604 23.0027 1.16535C24.25 1.16466 25.479 1.46528 26.5852 2.04163ZM23 7.3548C22.6649 7.35614 22.337 7.25801 22.0577 7.07282C21.7784 6.88763 21.5604 6.62373 21.4312 6.31452C21.302 6.00532 21.2675 5.66473 21.332 5.3359C21.3965 5.00707 21.5572 4.70478 21.7937 4.46734C22.0301 4.22989 22.3317 4.06796 22.6603 4.00207C22.9889 3.93617 23.3296 3.96926 23.6393 4.09715C23.9491 4.22505 24.2139 4.44199 24.4002 4.72051C24.5866 4.99902 24.6861 5.32657 24.6861 5.66167C24.6865 6.10963 24.5093 6.53946 24.1932 6.85687C23.8771 7.17428 23.448 7.35335 23 7.3548ZM9.80003 20.8351C8.22752 20.8401 6.68888 20.3784 5.37894 19.5084C4.069 18.6384 3.04668 17.3993 2.44143 15.9479C1.83617 14.4965 1.67521 12.8982 1.97892 11.3553C2.28262 9.81238 3.03734 8.39428 4.14751 7.28056C5.25767 6.16685 6.67335 5.40761 8.21529 5.09898C9.75723 4.79035 11.3561 4.94621 12.8094 5.54683C14.2627 6.14745 15.5051 7.16581 16.3792 8.47296C17.2534 9.78012 17.72 11.3173 17.72 12.8898C17.7209 14.9929 16.8876 17.0105 15.4029 18.5C13.9181 19.9895 11.9031 20.8293 9.80003 20.8351V20.8351ZM18.67 12.6917C18.6546 11.4161 18.3624 10.159 17.8137 9.0073C17.265 7.85561 16.4728 6.83676 15.4919 6.02112C14.5109 5.20548 13.3646 4.6125 12.1322 4.28313C10.8997 3.95377 9.61041 3.89586 8.35337 4.11342L11.2217 2.00824C11.7796 1.83386 15.8581 0.672301 19.0231 2.9298L19.0803 2.96449C19.7488 3.31125 20.4606 3.56728 21.1968 3.7258C20.9098 3.99317 20.6857 4.32101 20.5409 4.6856C20.3961 5.05018 20.3341 5.4424 20.3595 5.83388C20.3848 6.22535 20.4969 6.6063 20.6875 6.94915C20.8782 7.292 21.1427 7.58819 21.4618 7.81628C21.0438 8.09038 20.7061 8.47061 20.4833 8.91808L18.67 12.6917ZM21.1429 9.76183L21.3453 9.34042C21.4981 9.03296 21.7335 8.77413 22.0251 8.59297C22.3167 8.41181 22.653 8.31548 22.9964 8.3148C23.3397 8.31412 23.6764 8.40911 23.9687 8.58911C24.2611 8.76911 24.4975 9.027 24.6514 9.33386L24.857 9.76183H21.1429ZM24.5386 7.81602C24.8577 7.58789 25.1221 7.29169 25.3127 6.94885C25.5033 6.60601 25.6153 6.22509 25.6406 5.83365C25.6659 5.44221 25.6039 5.05003 25.4591 4.68549C25.3143 4.32095 25.0903 3.99314 24.8032 3.7258C25.5394 3.56728 26.2512 3.31125 26.9197 2.96448L26.9769 2.92979C30.1414 0.672782 34.2205 1.83339 34.7783 2.00823L37.6467 4.11342C36.3896 3.89584 35.1002 3.95377 33.8676 4.2832C32.6351 4.61262 31.4887 5.2057 30.5078 6.02145C29.5269 6.83719 28.7347 7.85617 28.186 9.00799C27.6374 10.1598 27.3453 11.417 27.33 12.6927L25.5135 8.91198C25.2915 8.46666 24.955 8.0884 24.5386 7.81602V7.81602ZM36.2 20.8351C34.6275 20.8401 33.0889 20.3784 31.7789 19.5084C30.469 18.6384 29.4467 17.3993 28.8414 15.9479C28.2362 14.4965 28.0752 12.8982 28.3789 11.3553C28.6826 9.81236 29.4373 8.39427 30.5475 7.28055C31.6577 6.16684 33.0734 5.4076 34.6153 5.09897C36.1572 4.79034 37.7561 4.9462 39.2094 5.54682C40.6627 6.14744 41.9051 7.1658 42.7792 8.47296C43.6534 9.78012 44.12 11.3173 44.12 12.8898C44.1209 14.9929 43.2876 17.0105 41.8029 18.5C40.3181 19.9895 38.3032 20.8293 36.2 20.8351Z" fill="#F37F02"/>
</svg>
