<svg width="60" height="112" viewBox="0 0 60 112" fill="none" xmlns="http://www.w3.org/2000/svg">
<circle cx="1" cy="1" r="1" fill="#2682D9"/>
<circle cx="11" cy="1" r="1" fill="#2682D9"/>
<circle cx="21" cy="1" r="1" fill="#2682D9"/>
<circle cx="31" cy="1" r="1" fill="#2682D9"/>
<circle cx="41" cy="1" r="1" fill="#2682D9"/>
<circle cx="51" cy="1" r="1" fill="#2682D9"/>
<circle cx="1" cy="11" r="1" fill="#2682D9"/>
<circle cx="11" cy="11" r="1" fill="#2682D9"/>
<circle cx="21" cy="11" r="1" fill="#2682D9"/>
<circle cx="31" cy="11" r="1" fill="#2682D9"/>
<circle cx="41" cy="11" r="1" fill="#2682D9"/>
<circle cx="51" cy="11" r="1" fill="#2682D9"/>
<circle cx="1" cy="21" r="1" fill="#2682D9"/>
<circle cx="11" cy="21" r="1" fill="#2682D9"/>
<circle cx="21" cy="21" r="1" fill="#2682D9"/>
<circle cx="31" cy="21" r="1" fill="#2682D9"/>
<circle cx="41" cy="21" r="1" fill="#2682D9"/>
<circle cx="51" cy="21" r="1" fill="#2682D9"/>
<circle cx="1" cy="31" r="1" fill="#2682D9"/>
<circle cx="11" cy="31" r="1" fill="#2682D9"/>
<circle cx="21" cy="31" r="1" fill="#2682D9"/>
<circle cx="31" cy="31" r="1" fill="#2682D9"/>
<circle cx="41" cy="31" r="1" fill="#2682D9"/>
<circle cx="51" cy="31" r="1" fill="#2682D9"/>
<circle cx="1" cy="41" r="1" fill="#2682D9"/>
<circle cx="11" cy="41" r="1" fill="#2682D9"/>
<circle cx="21" cy="41" r="1" fill="#2682D9"/>
<circle cx="31" cy="41" r="1" fill="#2682D9"/>
<circle cx="41" cy="41" r="1" fill="#2682D9"/>
<circle cx="51" cy="41" r="1" fill="#2682D9"/>
<circle cx="1" cy="51" r="1" fill="#2682D9"/>
<circle cx="11" cy="51" r="1" fill="#2682D9"/>
<circle cx="21" cy="51" r="1" fill="#2682D9"/>
<circle cx="31" cy="51" r="1" fill="#2682D9"/>
<circle cx="41" cy="51" r="1" fill="#2682D9"/>
<circle cx="51" cy="51" r="1" fill="#2682D9"/>
<circle cx="1" cy="61" r="1" fill="#2682D9"/>
<circle cx="11" cy="61" r="1" fill="#2682D9"/>
<circle cx="21" cy="61" r="1" fill="#2682D9"/>
<circle cx="31" cy="61" r="1" fill="#2682D9"/>
<circle cx="41" cy="61" r="1" fill="#2682D9"/>
<circle cx="51" cy="61" r="1" fill="#2682D9"/>
<circle cx="1" cy="71" r="1" fill="#2682D9"/>
<circle cx="11" cy="71" r="1" fill="#2682D9"/>
<circle cx="21" cy="71" r="1" fill="#2682D9"/>
<circle cx="31" cy="71" r="1" fill="#2682D9"/>
<circle cx="41" cy="71" r="1" fill="#2682D9"/>
<circle cx="51" cy="71" r="1" fill="#2682D9"/>
<circle cx="1" cy="81" r="1" fill="#2682D9"/>
<circle cx="11" cy="81" r="1" fill="#2682D9"/>
<circle cx="21" cy="81" r="1" fill="#2682D9"/>
<circle cx="31" cy="81" r="1" fill="#2682D9"/>
<circle cx="41" cy="81" r="1" fill="#2682D9"/>
<circle cx="51" cy="81" r="1" fill="#2682D9"/>
<circle cx="1" cy="91" r="1" fill="#2682D9"/>
<circle cx="11" cy="91" r="1" fill="#2682D9"/>
<circle cx="21" cy="91" r="1" fill="#2682D9"/>
<circle cx="31" cy="91" r="1" fill="#2682D9"/>
<circle cx="41" cy="91" r="1" fill="#2682D9"/>
<circle cx="51" cy="91" r="1" fill="#2682D9"/>
<circle cx="1" cy="101" r="1" fill="#2682D9"/>
<circle cx="11" cy="101" r="1" fill="#2682D9"/>
<circle cx="21" cy="101" r="1" fill="#2682D9"/>
<circle cx="31" cy="101" r="1" fill="#2682D9"/>
<circle cx="41" cy="101" r="1" fill="#2682D9"/>
<circle cx="51" cy="101" r="1" fill="#2682D9"/>
<circle cx="1" cy="111" r="1" fill="#2682D9"/>
<circle cx="11" cy="111" r="1" fill="#2682D9"/>
<circle cx="21" cy="111" r="1" fill="#2682D9"/>
<circle cx="31" cy="111" r="1" fill="#2682D9"/>
<circle cx="41" cy="111" r="1" fill="#2682D9"/>
<circle cx="51" cy="111" r="1" fill="#2682D9"/>
</svg>
