<svg width="172" height="69" viewBox="0 0 172 69" fill="none" xmlns="http://www.w3.org/2000/svg">
<circle cx="1" cy="1" r="1" fill="#F37F02"/>
<circle cx="11" cy="1" r="1" fill="#F37F02"/>
<circle cx="21" cy="1" r="1" fill="#F37F02"/>
<circle cx="31" cy="1" r="1" fill="#F37F02"/>
<circle cx="41" cy="1" r="1" fill="#F37F02"/>
<circle cx="51" cy="1" r="1" fill="#F37F02"/>
<circle cx="61" cy="1" r="1" fill="#F37F02"/>
<circle cx="71" cy="1" r="1" fill="#F37F02"/>
<circle cx="81" cy="1" r="1" fill="#F37F02"/>
<circle cx="1" cy="11" r="1" fill="#F37F02"/>
<circle cx="11" cy="11" r="1" fill="#F37F02"/>
<circle cx="21" cy="11" r="1" fill="#F37F02"/>
<circle cx="31" cy="11" r="1" fill="#F37F02"/>
<circle cx="41" cy="11" r="1" fill="#F37F02"/>
<circle cx="51" cy="11" r="1" fill="#F37F02"/>
<circle cx="61" cy="11" r="1" fill="#F37F02"/>
<circle cx="71" cy="11" r="1" fill="#F37F02"/>
<circle cx="81" cy="11" r="1" fill="#F37F02"/>
<circle cx="1" cy="21" r="1" fill="#F37F02"/>
<circle cx="11" cy="21" r="1" fill="#F37F02"/>
<circle cx="21" cy="21" r="1" fill="#F37F02"/>
<circle cx="31" cy="21" r="1" fill="#F37F02"/>
<circle cx="41" cy="21" r="1" fill="#F37F02"/>
<circle cx="51" cy="21" r="1" fill="#F37F02"/>
<circle cx="61" cy="21" r="1" fill="#F37F02"/>
<circle cx="71" cy="21" r="1" fill="#F37F02"/>
<circle cx="81" cy="21" r="1" fill="#F37F02"/>
<circle cx="1" cy="31" r="1" fill="#F37F02"/>
<circle cx="11" cy="31" r="1" fill="#F37F02"/>
<circle cx="21" cy="31" r="1" fill="#F37F02"/>
<circle cx="31" cy="31" r="1" fill="#F37F02"/>
<circle cx="41" cy="31" r="1" fill="#F37F02"/>
<circle cx="51" cy="31" r="1" fill="#F37F02"/>
<circle cx="61" cy="31" r="1" fill="#F37F02"/>
<circle cx="71" cy="31" r="1" fill="#F37F02"/>
<circle cx="81" cy="31" r="1" fill="#F37F02"/>
<circle cx="1" cy="41" r="1" fill="#F37F02"/>
<circle cx="11" cy="41" r="1" fill="#F37F02"/>
<circle cx="21" cy="41" r="1" fill="#F37F02"/>
<circle cx="31" cy="41" r="1" fill="#F37F02"/>
<circle cx="41" cy="41" r="1" fill="#F37F02"/>
<circle cx="51" cy="41" r="1" fill="#F37F02"/>
<circle cx="61" cy="41" r="1" fill="#F37F02"/>
<circle cx="71" cy="41" r="1" fill="#F37F02"/>
<circle cx="81" cy="41" r="1" fill="#F37F02"/>
<circle cx="1" cy="51" r="1" fill="#F37F02"/>
<circle cx="11" cy="51" r="1" fill="#F37F02"/>
<circle cx="21" cy="51" r="1" fill="#F37F02"/>
<circle cx="31" cy="51" r="1" fill="#F37F02"/>
<circle cx="41" cy="51" r="1" fill="#F37F02"/>
<circle cx="51" cy="51" r="1" fill="#F37F02"/>
<circle cx="61" cy="51" r="1" fill="#F37F02"/>
<circle cx="71" cy="51" r="1" fill="#F37F02"/>
<circle cx="81" cy="51" r="1" fill="#F37F02"/>
<circle cx="1" cy="61" r="1" fill="#F37F02"/>
<circle cx="11" cy="61" r="1" fill="#F37F02"/>
<circle cx="21" cy="61" r="1" fill="#F37F02"/>
<circle cx="31" cy="61" r="1" fill="#F37F02"/>
<circle cx="41" cy="61" r="1" fill="#F37F02"/>
<circle cx="51" cy="61" r="1" fill="#F37F02"/>
<circle cx="61" cy="61" r="1" fill="#F37F02"/>
<circle cx="71" cy="61" r="1" fill="#F37F02"/>
<circle cx="81" cy="61" r="1" fill="#F37F02"/>
<circle cx="91" cy="1" r="1" fill="#F37F02"/>
<circle cx="101" cy="1" r="1" fill="#F37F02"/>
<circle cx="111" cy="1" r="1" fill="#F37F02"/>
<circle cx="121" cy="1" r="1" fill="#F37F02"/>
<circle cx="131" cy="1" r="1" fill="#F37F02"/>
<circle cx="141" cy="1" r="1" fill="#F37F02"/>
<circle cx="151" cy="1" r="1" fill="#F37F02"/>
<circle cx="161" cy="1" r="1" fill="#F37F02"/>
<circle cx="171" cy="1" r="1" fill="#F37F02"/>
<circle cx="91" cy="11" r="1" fill="#F37F02"/>
<circle cx="101" cy="11" r="1" fill="#F37F02"/>
<circle cx="111" cy="11" r="1" fill="#F37F02"/>
<circle cx="121" cy="11" r="1" fill="#F37F02"/>
<circle cx="131" cy="11" r="1" fill="#F37F02"/>
<circle cx="141" cy="11" r="1" fill="#F37F02"/>
<circle cx="151" cy="11" r="1" fill="#F37F02"/>
<circle cx="161" cy="11" r="1" fill="#F37F02"/>
<circle cx="171" cy="11" r="1" fill="#F37F02"/>
<circle cx="91" cy="21" r="1" fill="#F37F02"/>
<circle cx="101" cy="21" r="1" fill="#F37F02"/>
<circle cx="111" cy="21" r="1" fill="#F37F02"/>
<circle cx="121" cy="21" r="1" fill="#F37F02"/>
<circle cx="131" cy="21" r="1" fill="#F37F02"/>
<circle cx="141" cy="21" r="1" fill="#F37F02"/>
<circle cx="151" cy="21" r="1" fill="#F37F02"/>
<circle cx="161" cy="21" r="1" fill="#F37F02"/>
<circle cx="171" cy="21" r="1" fill="#F37F02"/>
<circle cx="91" cy="31" r="1" fill="#F37F02"/>
<circle cx="101" cy="31" r="1" fill="#F37F02"/>
<circle cx="111" cy="31" r="1" fill="#F37F02"/>
<circle cx="121" cy="31" r="1" fill="#F37F02"/>
<circle cx="131" cy="31" r="1" fill="#F37F02"/>
<circle cx="141" cy="31" r="1" fill="#F37F02"/>
<circle cx="151" cy="31" r="1" fill="#F37F02"/>
<circle cx="161" cy="31" r="1" fill="#F37F02"/>
<circle cx="171" cy="31" r="1" fill="#F37F02"/>
<circle cx="91" cy="41" r="1" fill="#F37F02"/>
<circle cx="101" cy="41" r="1" fill="#F37F02"/>
<circle cx="111" cy="41" r="1" fill="#F37F02"/>
<circle cx="121" cy="41" r="1" fill="#F37F02"/>
<circle cx="131" cy="41" r="1" fill="#F37F02"/>
<circle cx="141" cy="41" r="1" fill="#F37F02"/>
<circle cx="151" cy="41" r="1" fill="#F37F02"/>
<circle cx="161" cy="41" r="1" fill="#F37F02"/>
<circle cx="171" cy="41" r="1" fill="#F37F02"/>
<circle cx="91" cy="51" r="1" fill="#F37F02"/>
<circle cx="101" cy="51" r="1" fill="#F37F02"/>
<circle cx="111" cy="51" r="1" fill="#F37F02"/>
<circle cx="121" cy="51" r="1" fill="#F37F02"/>
<circle cx="131" cy="51" r="1" fill="#F37F02"/>
<circle cx="141" cy="51" r="1" fill="#F37F02"/>
<circle cx="151" cy="51" r="1" fill="#F37F02"/>
<circle cx="161" cy="51" r="1" fill="#F37F02"/>
<circle cx="171" cy="51" r="1" fill="#F37F02"/>
<circle cx="91" cy="61" r="1" fill="#F37F02"/>
<circle cx="101" cy="61" r="1" fill="#F37F02"/>
<circle cx="111" cy="61" r="1" fill="#F37F02"/>
<circle cx="121" cy="61" r="1" fill="#F37F02"/>
<circle cx="131" cy="61" r="1" fill="#F37F02"/>
<circle cx="141" cy="61" r="1" fill="#F37F02"/>
<circle cx="151" cy="61" r="1" fill="#F37F02"/>
<circle cx="161" cy="61" r="1" fill="#F37F02"/>
<circle cx="171" cy="61" r="1" fill="#F37F02"/>
</svg>
