<svg width="82" height="82" viewBox="0 0 82 82" fill="none" xmlns="http://www.w3.org/2000/svg">
<rect x="1" y="1" width="80" height="80" rx="16" stroke="url(#paint0_linear_1_691)" stroke-width="1.4"/>
<g clip-path="url(#clip0_1_691)">
<path d="M62.1965 30.847C62.7616 29.9633 63.1016 28.9546 63.1869 27.9091C63.2722 26.8637 63.1001 25.8132 62.6857 24.8496C62.2713 23.886 61.6272 23.0385 60.8097 22.3813C59.9921 21.7241 59.0261 21.2771 57.996 21.0794C56.9658 20.8818 55.9029 20.9394 54.9002 21.2473C53.8975 21.5552 52.9854 22.1041 52.2437 22.8458C51.5021 23.5876 50.9534 24.4997 50.6456 25.5025C50.3379 26.5053 50.2804 27.5682 50.4782 28.5983L44.5773 22.7027C43.651 21.7781 42.3957 21.2588 41.0869 21.2588C39.7781 21.2588 38.5228 21.7781 37.5965 22.7027L31.6956 28.5983C31.9545 27.2488 31.7738 25.8518 31.1799 24.6126C30.5861 23.3734 29.6105 22.3573 28.3964 21.7136C27.1823 21.07 25.7938 20.8327 24.4349 21.0366C23.0759 21.2406 21.8182 21.875 20.8466 22.8467C19.8749 23.8183 19.2405 25.076 19.0366 26.435C18.8326 27.7939 19.0699 29.1824 19.7136 30.3965C20.3572 31.6106 21.3733 32.5862 22.6125 33.18C23.8517 33.7739 25.2487 33.9546 26.5982 33.6957L20.7026 39.5966C20.2441 40.0549 19.8805 40.5991 19.6324 41.1979C19.3842 41.7968 19.2565 42.4387 19.2565 43.087C19.2565 43.7353 19.3842 44.3772 19.6324 44.9761C19.8805 45.5749 20.2441 46.1191 20.7026 46.5774L26.593 52.4783C25.7395 52.3101 24.8608 52.3169 24.0101 52.4985C23.1594 52.6801 22.3544 53.0326 21.644 53.5347C20.9336 54.0368 20.3326 54.6779 19.8775 55.4192C19.4224 56.1605 19.1226 56.9866 18.9963 57.8472C18.87 58.7079 18.9198 59.5853 19.1428 60.4261C19.3658 61.2669 19.7573 62.0536 20.2935 62.7386C20.8297 63.4236 21.4995 63.9925 22.2622 64.4108C23.0249 64.8291 23.8646 65.0882 24.7304 65.1722C24.954 65.1959 25.1786 65.2081 25.4034 65.2087C26.3479 65.2073 27.2804 64.9973 28.1344 64.5939C28.9884 64.1905 29.7429 63.6036 30.3439 62.875C30.9449 62.1464 31.3776 61.2941 31.6113 60.379C31.845 59.4639 31.8738 58.5084 31.6956 57.5809L37.5965 63.4714C38.0548 63.9298 38.599 64.2934 39.1979 64.5416C39.7968 64.7897 40.4387 64.9174 41.0869 64.9174C41.7352 64.9174 42.3771 64.7897 42.976 64.5416C43.5749 64.2934 44.119 63.9298 44.5773 63.4714L50.3478 57.6957C50.7753 57.2681 51.0155 56.6882 51.0155 56.0835C51.0155 55.4788 50.7753 54.8989 50.3478 54.4714L50.1443 54.2679C49.7986 53.9318 49.3821 53.6773 48.9253 53.5229C48.4685 53.3686 47.983 53.3183 47.5043 53.3757C46.6136 53.4676 45.7163 53.281 44.936 52.8419C44.1557 52.4027 43.5307 51.7324 43.1471 50.9233C42.7635 50.1142 42.6402 49.2061 42.794 48.324C42.9479 47.4419 43.3714 46.6292 44.0063 45.9977C44.6412 45.3663 45.4562 44.9472 46.3391 44.7981C47.222 44.649 48.1294 44.7773 48.9364 45.1653C49.7434 45.5533 50.4103 46.1819 50.8453 46.9646C51.2802 47.7472 51.4619 48.6455 51.3652 49.5357C51.3084 50.0096 51.3591 50.4902 51.5136 50.9419C51.668 51.3935 51.9223 51.8045 52.2574 52.1444L52.466 52.3531C52.8945 52.781 53.4753 53.0213 54.0808 53.0213C54.6864 53.0213 55.2671 52.781 55.6956 52.3531L61.4713 46.5774C62.3955 45.652 62.9147 44.3975 62.9147 43.0896C62.9147 41.7817 62.3955 40.5272 61.4713 39.6018L55.5808 33.6957C56.8419 33.9351 58.1458 33.7917 59.3247 33.2841C60.5037 32.7764 61.5038 31.9277 62.1965 30.847ZM54.026 32.1983C53.6409 32.5838 53.4245 33.1064 53.4245 33.6513C53.4245 34.1963 53.6409 34.7189 54.026 35.1044L59.9947 41.0731C60.5287 41.6073 60.8287 42.3317 60.8287 43.087C60.8287 43.8423 60.5287 44.5667 59.9947 45.1009L54.2191 50.8713C54.1821 50.9074 54.1325 50.9275 54.0808 50.9275C54.0292 50.9275 53.9796 50.9074 53.9426 50.8713L53.7339 50.6627C53.6205 50.5427 53.5355 50.3989 53.4849 50.2418C53.4344 50.0848 53.4196 49.9184 53.4417 49.7548C53.5912 48.3694 53.2857 46.9729 52.5714 45.7764C51.857 44.58 50.7727 43.6485 49.4821 43.1229C48.1916 42.5972 46.765 42.5059 45.4179 42.8628C44.0709 43.2196 42.8766 44.0053 42.0156 45.1009C41.1558 46.2087 40.6792 47.5657 40.6576 48.9678C40.6359 50.3699 41.0704 51.7411 41.8956 52.8748C42.5571 53.7733 43.4418 54.4834 44.4622 54.9345C45.4827 55.3857 46.6033 55.5624 47.713 55.447C47.8838 55.4225 48.058 55.436 48.223 55.4865C48.388 55.537 48.5399 55.6233 48.6678 55.7392L48.8713 55.9427C48.8897 55.9606 48.9044 55.9821 48.9144 56.0059C48.9244 56.0296 48.9296 56.0551 48.9296 56.0809C48.9296 56.1067 48.9244 56.1322 48.9144 56.1559C48.9044 56.1797 48.8897 56.2012 48.8713 56.2192L43.1008 61.9948C42.8367 62.2598 42.5228 62.4701 42.1772 62.6136C41.8316 62.7571 41.4611 62.8309 41.0869 62.8309C40.7127 62.8309 40.3422 62.7571 39.9966 62.6136C39.651 62.4701 39.3372 62.2598 39.073 61.9948L33.1095 56.0313C32.9192 55.839 32.6924 55.6864 32.4425 55.5825C32.1926 55.4785 31.9245 55.4254 31.6539 55.4261C31.3497 55.4255 31.0493 55.4925 30.7742 55.6224C30.4992 55.7522 30.2565 55.9416 30.0637 56.1769C29.8709 56.4121 29.7329 56.6873 29.6596 56.9825C29.5863 57.2776 29.5796 57.5854 29.64 57.8835C29.7853 58.5782 29.7578 59.2979 29.5601 59.9794C29.3623 60.661 29.0003 61.2836 28.5058 61.7926C28.0112 62.3016 27.3993 62.6814 26.7237 62.8987C26.0481 63.116 25.3295 63.1641 24.631 63.0389C23.9324 62.9136 23.2753 62.6188 22.7173 62.1803C22.1593 61.7419 21.7175 61.1731 21.4306 60.524C21.1437 59.8749 21.0205 59.1653 21.0719 58.4575C21.1232 57.7497 21.3476 57.0653 21.7252 56.4644C22.1975 55.7171 22.8867 55.1318 23.7007 54.7869C24.5146 54.4419 25.4145 54.3536 26.28 54.534C26.7125 54.6222 27.162 54.5688 27.5618 54.3818C27.9617 54.1947 28.2907 53.8839 28.5003 53.4953C28.7098 53.1068 28.7886 52.6611 28.7251 52.2242C28.6616 51.7873 28.4592 51.3825 28.1478 51.0696L22.1791 45.1009C21.6451 44.5667 21.3451 43.8423 21.3451 43.087C21.3451 42.3317 21.6451 41.6073 22.1791 41.0731L28.1478 35.1096C28.4608 34.7974 28.6648 34.3926 28.7295 33.9553C28.7943 33.518 28.7163 33.0714 28.5072 32.6819C28.2981 32.2924 27.969 31.9807 27.5687 31.793C27.1685 31.6053 26.7183 31.5517 26.2852 31.64C25.419 31.8192 24.5188 31.7305 23.7042 31.3857C22.8897 31.0409 22.1994 30.4563 21.7252 29.7096C21.3474 29.109 21.1229 28.4248 21.0712 27.7171C21.0195 27.0094 21.1424 26.2998 21.4289 25.6507C21.7154 25.0015 22.1569 24.4326 22.7146 23.9939C23.2722 23.5552 23.9291 23.26 24.6274 23.1343C25.3258 23.0086 26.0443 23.0563 26.72 23.2731C27.3956 23.4899 28.0077 23.8692 28.5026 24.3777C28.9974 24.8862 29.3599 25.5084 29.5582 26.1897C29.7565 26.871 29.7846 27.5906 29.64 28.2853C29.5706 28.6169 29.5854 28.9605 29.6829 29.285C29.7804 29.6094 29.9575 29.9042 30.1982 30.1427C30.5876 30.5204 31.1088 30.7316 31.6513 30.7316C32.1937 30.7316 32.7149 30.5204 33.1043 30.1427L39.073 24.1792C39.6079 23.6465 40.332 23.3474 41.0869 23.3474C41.8418 23.3474 42.566 23.6465 43.1008 24.1792L49.0643 30.1479C49.4539 30.5271 49.9762 30.7393 50.52 30.7393C51.0637 30.7393 51.586 30.5271 51.9756 30.1479C52.2159 29.9092 52.3928 29.6143 52.4903 29.29C52.5878 28.9656 52.6027 28.6221 52.5339 28.2905C52.3412 27.3765 52.4489 26.4247 52.8409 25.5768C53.2328 24.729 53.8882 24.0304 54.7092 23.585C55.5303 23.1397 56.4733 22.9715 57.3977 23.1053C58.3222 23.2392 59.1787 23.6681 59.8397 24.3281C60.5007 24.9881 60.9309 25.8439 61.0662 26.7681C61.2015 27.6923 61.0348 28.6356 60.5907 29.4573C60.1466 30.2791 59.4491 30.9355 58.6018 31.3288C57.7546 31.7221 56.803 31.8313 55.8887 31.64C55.5563 31.5698 55.2116 31.5841 54.8861 31.6816C54.5607 31.7791 54.265 31.9568 54.026 32.1983Z" fill="white"/>
</g>
<defs>
<linearGradient id="paint0_linear_1_691" x1="8" y1="-7" x2="41" y2="81" gradientUnits="userSpaceOnUse">
<stop stop-color="#F37F02"/>
<stop offset="1" stop-color="#F37F02" stop-opacity="0"/>
</linearGradient>
<clipPath id="clip0_1_691">
<rect width="52.1739" height="48" fill="white" transform="translate(15 17)"/>
</clipPath>
</defs>
</svg>
