<svg width="82" height="82" viewBox="0 0 82 82" fill="none" xmlns="http://www.w3.org/2000/svg">
<rect x="1" y="1" width="80" height="80" rx="16" stroke="url(#paint0_linear_1_624)" stroke-width="1.4"/>
<g clip-path="url(#clip0_1_624)">
<path d="M29.6629 55.1732L29.8971 56.1149H30.0268C33.0132 56.1149 35.4944 58.7805 35.4944 62.206V64.2836C35.4944 64.3989 35.4606 64.4506 35.4454 64.4674C35.4342 64.4797 35.4108 64.5 35.3457 64.5H20.2971C20.232 64.5 20.2086 64.4797 20.1975 64.4674C20.1823 64.4506 20.1484 64.3989 20.1484 64.2836V62.206C20.1484 58.7842 22.6263 56.1149 25.6809 56.1149H25.8755L26.1097 55.1732C24.659 54.4041 23.6511 52.7876 23.6511 50.8866C23.6511 48.2492 25.6134 46.1567 27.8863 46.1567C30.1591 46.1567 32.1214 48.2492 32.1214 50.8866C32.1214 52.7876 31.1136 54.4041 29.6629 55.1732ZM34.6971 64.0672H35.1971V63.5672V62.206C35.1971 59.1121 32.9431 56.5478 30.0268 56.5478H25.616C22.6997 56.5478 20.4457 59.1121 20.4457 62.206V63.5672V64.0672H20.9457H34.6971ZM27.8863 46.5896C25.6835 46.5896 23.9484 48.5807 23.9484 50.8866C23.9484 53.1924 25.6835 55.1836 27.8863 55.1836C30.0891 55.1836 31.8241 53.1924 31.8241 50.8866C31.8241 48.5807 30.0891 46.5896 27.8863 46.5896Z" fill="white" stroke="white"/>
<path d="M54.1869 53.28L54.3509 54.2523H54.4806C58.5697 54.2523 61.959 57.9208 61.959 62.5643V64.2837C61.959 64.399 61.9252 64.4507 61.91 64.4675C61.8988 64.4798 61.8754 64.5001 61.8103 64.5001H43.259C43.1939 64.5001 43.1705 64.4798 43.1594 64.4675C43.1442 64.4507 43.1104 64.399 43.1104 64.2837V62.5643C43.1104 57.9208 46.4996 54.2523 50.5887 54.2523H50.8482L51.0253 53.2847C48.9583 52.502 47.3914 50.3303 47.3914 47.7344C47.3914 44.456 49.8043 41.9299 52.5995 41.9299C55.3913 41.9299 57.8076 44.5238 57.8076 47.7344C57.8076 50.3403 56.2335 52.5695 54.1869 53.28ZM61.1617 64.0672H61.6617V63.5672V62.5643C61.6617 58.2524 58.4996 54.6852 54.4806 54.6852H50.5239C46.5048 54.6852 43.3428 58.2524 43.3428 62.5643V63.5672V64.0672H43.8428H61.1617ZM52.5347 42.3628C49.8129 42.3628 47.6239 44.8554 47.6239 47.7344C47.6239 50.6134 49.8129 53.106 52.5347 53.106C55.2519 53.106 57.4455 50.69 57.4455 47.7344C57.4455 44.7838 55.3213 42.3628 52.5347 42.3628Z" fill="white" stroke="white"/>
<path d="M28.555 38.7236L28.6569 38.4207L28.4248 38.2011C26.7095 36.5772 25.7271 34.2732 25.7271 31.9015C25.7271 26.9647 29.8968 22.8731 35.1514 22.8731C35.833 22.8731 36.51 22.9417 37.1192 23.0763L37.4756 23.155L37.6592 22.8396C39.317 19.9914 42.4564 18.2164 45.9189 18.2164C51.1735 18.2164 55.3433 22.3079 55.3433 27.2448C55.3433 29.6023 54.3063 31.8424 52.5733 33.5515L52.3509 33.7708L52.4504 34.0669L54.1275 39.0536C54.1481 39.1657 54.1268 39.2608 54.0765 39.3354C54.0496 39.3498 54.0271 39.3567 54.011 39.3591C53.9998 39.3607 53.9908 39.3604 53.9826 39.359C53.9758 39.3578 53.9654 39.3551 53.9511 39.3479L48.4498 35.9882L48.2734 35.8805L48.0725 35.9288C46.6553 36.269 45.3019 36.2695 43.9417 35.9964L43.5928 35.9263L43.4123 36.233C41.8144 38.9482 38.7338 40.8582 35.1514 40.8582C34.4264 40.8582 33.6934 40.7247 32.9068 40.5799L32.7188 40.5453L32.5556 40.6449L27.0421 44.0121L27.0237 44.0234L27.0083 44.0347C27.0075 44.035 27.0059 44.0357 27.0034 44.0363C26.997 44.0381 26.9887 44.0391 26.9804 44.0385C26.9723 44.038 26.967 44.0362 26.9645 44.035C26.9625 44.0341 26.9614 44.0333 26.9599 44.0316C26.888 43.9523 26.8535 43.8433 26.878 43.7104L28.555 38.7236ZM52.0369 33.7504L52.0286 33.7253L52.0177 33.7013C52.0092 33.6826 52.0061 33.6656 52.0165 33.631C52.0282 33.5923 52.0564 33.539 52.1071 33.4784C54.0165 31.882 55.046 29.6747 55.046 27.2448C55.046 22.4998 50.9672 18.6493 45.9189 18.6493C42.7723 18.6493 39.8344 20.2326 38.1205 22.5798L37.7253 23.1211L38.3568 23.3457C42.0042 24.643 44.5757 27.978 44.5757 31.8299C44.5757 32.9035 44.332 33.9882 43.9609 34.9445L43.7424 35.5077L44.3365 35.6171C45.586 35.8471 46.888 35.7673 48.2322 35.4703L48.2724 35.4614C48.2756 35.4626 48.279 35.4639 48.2825 35.4654C48.2977 35.4716 48.3134 35.479 48.3285 35.487L52.5337 38.0594L53.698 38.7716L53.2693 37.4758L52.0369 33.7504ZM32.677 40.2153C32.692 40.2074 32.7077 40.1999 32.7229 40.1937C32.7274 40.1919 32.7315 40.1903 32.7354 40.1889L32.748 40.1924C33.5805 40.4223 34.4056 40.497 35.1514 40.497C40.1323 40.497 44.2784 36.6489 44.2784 31.9015C44.2784 27.1565 40.1997 23.306 35.1514 23.306C30.1657 23.306 26.0286 27.157 25.9595 31.966L25.9595 31.966V31.9731C25.9595 34.3566 27.074 36.5634 28.9142 38.2194L28.9324 38.2358L28.9486 38.2478C28.9501 38.2494 28.9539 38.2538 28.9591 38.2618C28.969 38.2772 28.9793 38.2988 28.9865 38.3242C29.0019 38.3788 28.9943 38.4153 28.9878 38.4296L28.9769 38.4537L28.9686 38.4788L27.7361 42.2042L27.3075 43.4999L28.4717 42.7877L32.677 40.2153Z" fill="white" stroke="white"/>
<path d="M30.1565 30.0374C31.0672 30.0374 31.9268 30.9119 31.9268 32.0448C31.9268 33.1778 31.0672 34.0523 30.1565 34.0523C29.2458 34.0523 28.3862 33.1778 28.3862 32.0448C28.3862 30.8499 29.2369 30.0374 30.1565 30.0374ZM30.1565 30.4702C29.3159 30.4702 28.6835 31.2434 28.6835 32.0448C28.6835 32.8462 29.3159 33.6194 30.1565 33.6194C30.9972 33.6194 31.6295 32.8462 31.6295 32.0448C31.6295 31.2434 30.9972 30.4702 30.1565 30.4702Z" fill="white" stroke="white"/>
<path d="M36.9214 32.0448C36.9214 33.1778 36.0618 34.0523 35.1511 34.0523C34.2404 34.0523 33.3809 33.1778 33.3809 32.0448C33.3809 30.9119 34.2404 30.0374 35.1511 30.0374C36.0618 30.0374 36.9214 30.9119 36.9214 32.0448ZM36.6241 32.0448C36.6241 31.2434 35.9918 30.4702 35.1511 30.4702C34.3315 30.4702 33.6782 31.1491 33.6782 32.0448C33.6782 32.8462 34.3105 33.6194 35.1511 33.6194C35.9918 33.6194 36.6241 32.8462 36.6241 32.0448Z" fill="white" stroke="white"/>
<path d="M41.916 32.0448C41.916 33.1778 41.0565 34.0523 40.1458 34.0523C39.2351 34.0523 38.3755 33.1778 38.3755 32.0448C38.3755 30.9119 39.2351 30.0374 40.1458 30.0374C41.0565 30.0374 41.916 30.9119 41.916 32.0448ZM41.6187 32.0448C41.6187 31.2434 40.9864 30.4702 40.1458 30.4702C39.3261 30.4702 38.6728 31.1491 38.6728 32.0448C38.6728 32.8462 39.3051 33.6194 40.1458 33.6194C40.9864 33.6194 41.6187 32.8462 41.6187 32.0448Z" fill="white" stroke="white"/>
<path d="M51.6915 23.6642H43.718C43.7157 23.6635 43.711 23.6618 43.704 23.6582C43.6866 23.6492 43.6625 23.632 43.6378 23.6047C43.5835 23.5447 43.5645 23.481 43.5645 23.4477C43.5645 23.3324 43.5983 23.2807 43.6135 23.2639C43.6246 23.2516 43.648 23.2313 43.7131 23.2313H51.6915C51.7566 23.2313 51.78 23.2516 51.7911 23.2639C51.8063 23.2807 51.8401 23.3324 51.8401 23.4477C51.8401 23.5631 51.8063 23.6148 51.7911 23.6316C51.78 23.6439 51.7566 23.6642 51.6915 23.6642Z" fill="white" stroke="white"/>
<path d="M45.6594 26.4552H51.6918C51.7569 26.4552 51.7803 26.4755 51.7914 26.4878C51.8067 26.5046 51.8405 26.5563 51.8405 26.6716C51.8405 26.7869 51.8067 26.8386 51.7914 26.8554C51.7803 26.8677 51.7569 26.888 51.6918 26.888H45.6594C45.5943 26.888 45.5709 26.8677 45.5598 26.8554C45.5446 26.8386 45.5107 26.7869 45.5107 26.6716C45.5107 26.5563 45.5446 26.5046 45.5598 26.4878C45.5709 26.4755 45.5943 26.4552 45.6594 26.4552Z" fill="white" stroke="white"/>
<path d="M46.9568 29.6791H51.6919C51.757 29.6791 51.7804 29.6994 51.7915 29.7117C51.8067 29.7285 51.8405 29.7802 51.8405 29.8955C51.8405 30.0108 51.8067 30.0625 51.7915 30.0793C51.7804 30.0916 51.757 30.1119 51.6919 30.1119H46.9568C46.8917 30.1119 46.8683 30.0916 46.8571 30.0793C46.8419 30.0625 46.8081 30.0108 46.8081 29.8955C46.8081 29.7802 46.8419 29.7285 46.8571 29.7117C46.8683 29.6994 46.8917 29.6791 46.9568 29.6791Z" fill="white" stroke="white"/>
</g>
<defs>
<linearGradient id="paint0_linear_1_624" x1="8" y1="-7" x2="41" y2="81" gradientUnits="userSpaceOnUse">
<stop stop-color="#F37F02"/>
<stop offset="1" stop-color="#F37F02" stop-opacity="0"/>
</linearGradient>
<clipPath id="clip0_1_624">
<rect width="44.1081" height="48" fill="white" transform="translate(19 17)"/>
</clipPath>
</defs>
</svg>
